<svg width="25" height="23" viewBox="0 0 25 23" fill="none" xmlns="http://www.w3.org/2000/svg">
<path d="M12.5 22.02L10.76 20.46C8.74 18.64 7.07 17.07 5.75 15.75C4.43 14.43 3.38 13.2448 2.6 12.1944C1.82 11.144 1.2752 10.1792 0.9656 9.3C0.656 8.4208 0.5008 7.5208 0.5 6.6C0.5 4.72 1.13 3.15 2.39 1.89C3.65 0.63 5.22 0 7.1 0C8.14 0 9.13 0.22 10.07 0.66C11.01 1.1 11.82 1.72 12.5 2.52C13.18 1.72 13.99 1.1 14.93 0.66C15.87 0.22 16.86 0 17.9 0C19.78 0 21.35 0.63 22.61 1.89C23.87 3.15 24.5 4.72 24.5 6.6C24.5 7.52 24.3452 8.42 24.0356 9.3C23.726 10.18 23.1808 11.1448 22.4 12.1944C21.6192 13.244 20.5692 14.4292 19.25 15.75C17.9308 17.0708 16.2608 18.6408 14.24 20.46L12.5 22.02ZM12.5 18.78C14.42 17.06 16 15.5852 17.24 14.3556C18.48 13.126 19.46 12.056 20.18 11.1456C20.9 10.2352 21.4 9.4248 21.68 8.7144C21.96 8.004 22.1 7.2992 22.1 6.6C22.1 5.4 21.7 4.4 20.9 3.6C20.1 2.8 19.1 2.4 17.9 2.4C16.96 2.4 16.09 2.6648 15.29 3.1944C14.49 3.724 13.94 4.3992 13.64 5.22H11.36C11.06 4.4 10.51 3.7252 9.71 3.1956C8.91 2.666 8.04 2.4008 7.1 2.4C5.9 2.4 4.9 2.8 4.1 3.6C3.3 4.4 2.9 5.4 2.9 6.6C2.9 7.3 3.04 8.0052 3.32 8.7156C3.6 9.426 4.1 10.236 4.82 11.1456C5.54 12.0552 6.52 13.1252 7.76 14.3556C9 15.586 10.58 17.0608 12.5 18.78Z" fill="black"/>
</svg>
